<?xml version="1.0" encoding="iso-8859-1"?>
<!-- Generator: Adobe Illustrator 19.0.0, SVG Export Plug-In . SVG Version: 6.00 Build 0)  -->
<svg version="1.1" id="Capa_1" xmlns="http://www.w3.org/2000/svg" xmlns:xlink="http://www.w3.org/1999/xlink" x="0px" y="0px"
	 viewBox="0 0 448.034 448.034" style="enable-background:new 0 0 448.034 448.034;" xml:space="preserve">
<path style="fill:#168DE2;" d="M352.034,208.034c-1.832,0-3.616,0.176-5.424,0.272c20.033-65.488-16.815-134.816-82.303-154.849
	S129.491,70.272,109.458,135.76c-3.596,11.756-5.424,23.981-5.424,36.274c0,1.48,0.168,2.92,0.224,4.392
	C42.583,180.669-3.975,234.106,0.268,295.78c4.041,58.736,52.891,104.303,111.766,104.253h240c53.019,0,96-42.981,96-96
	S405.053,208.034,352.034,208.034z"/>
<g>
	<path style="fill:#147EC9;" d="M112.034,184.034c57.41,0.066,103.934,46.59,104,104h16c-0.075-66.243-53.757-119.925-120-120h-7.8
		c0,1.336-0.2,2.648-0.2,4c0,1.48,0.168,2.92,0.224,4.392c-11.437,0.806-22.682,3.372-33.336,7.608H112.034z"/>
	<path style="fill:#147EC9;" d="M390.346,216.034c-12.082-5.281-25.126-8.004-38.312-8c-1.832,0-3.616,0.176-5.424,0.272
		c0.8-2.664,1.528-5.368,2.16-8.104c-56.083,1.786-100.648,47.721-100.736,103.832h16c0.057-48.577,39.423-87.943,88-88H390.346z"/>
</g>
<g>
</g>
<g>
</g>
<g>
</g>
<g>
</g>
<g>
</g>
<g>
</g>
<g>
</g>
<g>
</g>
<g>
</g>
<g>
</g>
<g>
</g>
<g>
</g>
<g>
</g>
<g>
</g>
<g>
</g>
</svg>
